<?xml version="1.0" standalone="no"?>
<!DOCTYPE svg PUBLIC "-//W3C//DTD SVG 20010904//EN"
 "http://www.w3.org/TR/2001/REC-SVG-20010904/DTD/svg10.dtd">
<svg version="1.0" xmlns="http://www.w3.org/2000/svg"
 width="374.000000pt" height="373.000000pt" viewBox="0 0 374.000000 373.000000"
 preserveAspectRatio="xMidYMid meet">
<metadata>
Created by potrace 1.15, written by Peter Selinger 2001-2017
</metadata>
<g transform="translate(0.000000,373.000000) scale(0.100000,-0.100000)"
fill="#000000" stroke="none">
<path d="M1305 3473 c-55 -8 -194 -66 -232 -97 -155 -127 -220 -260 -230 -471
-5 -105 -1 -140 36 -333 4 -23 30 -86 57 -139 34 -66 45 -97 37 -100 -7 -3
-13 -12 -13 -20 0 -8 -15 -45 -34 -82 -81 -157 -140 -316 -161 -436 -9 -55
-22 -202 -27 -327 l-10 -227 53 -68 c30 -37 56 -70 59 -73 12 -11 60 -90 60
-99 0 -5 4 -11 9 -13 4 -1 35 -39 68 -83 33 -44 68 -86 77 -94 9 -7 16 -17 16
-22 0 -11 56 -93 75 -109 8 -7 15 -17 15 -22 0 -10 22 -41 74 -103 l28 -35
-31 0 c-17 0 -31 -4 -31 -8 0 -5 -93 -12 -207 -16 -115 -5 -251 -11 -303 -14
l-95 -7 -3 -33 -3 -33 78 5 c43 3 191 11 328 17 138 6 252 15 253 20 5 11 62
12 62 1 0 -5 11 -22 25 -38 14 -16 25 -33 25 -37 0 -4 11 -20 25 -35 14 -15
25 -32 25 -38 0 -6 9 -19 20 -29 38 -34 26 -45 -52 -45 -143 0 -794 -20 -836
-26 -39 -5 -42 -8 -42 -35 l0 -30 227 6 c125 4 230 8 234 11 6 3 266 3 531 0
74 -1 99 19 77 61 -8 15 -38 57 -66 92 -29 36 -53 70 -53 76 0 6 -11 22 -25
35 -14 13 -25 27 -25 32 0 4 57 9 128 9 170 2 186 6 190 46 3 25 -2 35 -23 49
-14 9 -40 31 -58 48 -18 17 -52 47 -76 65 -24 19 -49 40 -55 46 -6 7 -30 24
-53 38 -23 14 -52 36 -65 49 -29 27 -60 53 -113 93 -22 16 -46 35 -53 42 -7 7
-16 13 -20 13 -4 0 -31 23 -60 50 -30 28 -57 50 -61 50 -4 0 -19 9 -32 21 -13
12 -49 42 -79 67 -30 26 -63 56 -75 68 -11 12 -30 24 -42 28 -12 4 -32 19 -43
33 -18 24 -20 40 -19 192 0 143 4 184 29 296 30 141 54 215 102 315 17 36 39
85 50 108 23 52 11 60 133 -93 13 -16 64 -84 114 -150 49 -66 111 -144 138
-174 l49 -54 115 -23 c62 -13 157 -28 209 -35 52 -6 107 -18 121 -26 l25 -15
-35 -39 c-20 -21 -53 -45 -74 -54 -40 -16 -49 -43 -22 -65 9 -7 49 -15 90 -18
67 -4 78 -2 120 22 l46 27 10 -29 c9 -25 17 -31 54 -37 47 -7 69 1 99 34 16
18 18 31 13 85 l-6 64 47 7 c39 6 56 16 99 60 29 30 53 59 53 65 0 7 11 25 25
42 13 16 32 51 42 78 13 36 22 49 33 45 8 -3 29 3 45 11 17 9 43 20 60 23 17
4 35 17 42 31 16 32 17 136 1 146 -8 5 -7 10 3 18 64 50 100 188 62 235 -17
20 -29 24 -79 25 -77 0 -114 -18 -139 -71 -28 -58 -39 -67 -85 -70 -31 -2 -42
2 -50 17 -8 15 -21 20 -49 20 -42 0 -65 -19 -77 -63 -3 -16 -14 -31 -23 -34
-9 -3 -43 -16 -76 -28 -146 -55 -361 -128 -445 -152 -30 -8 -60 -19 -67 -25
-12 -10 -107 31 -140 61 -10 9 -31 23 -47 31 -29 15 -27 15 60 22 74 5 108 14
204 54 69 28 135 63 165 88 65 53 163 153 186 191 40 65 91 172 99 210 5 22
13 58 19 80 6 22 11 95 11 163 0 178 -26 264 -104 335 -80 74 -98 87 -117 87
-18 0 -68 26 -79 42 -3 4 -41 23 -85 43 -44 20 -91 43 -105 50 -71 37 -234 55
-355 38z m320 -97 c38 -19 95 -45 125 -59 30 -13 72 -39 93 -58 22 -19 55 -49
75 -66 20 -18 40 -33 44 -33 4 0 8 -5 8 -11 0 -18 49 -59 69 -59 45 0 81 -241
50 -340 -6 -19 -14 -48 -19 -65 -52 -185 -193 -364 -357 -452 -173 -92 -353
-102 -487 -27 -104 58 -173 142 -247 299 -43 91 -54 131 -77 265 -20 121 -8
209 44 335 42 100 87 158 174 219 109 77 186 98 340 91 82 -4 103 -9 165 -39z
m1000 -1066 c18 -19 17 -22 -9 -73 -47 -87 -102 -127 -134 -95 -18 18 -15 42
7 62 11 10 21 32 23 49 2 23 13 38 37 54 42 28 53 29 76 3z m-1331 -245 c129
-98 222 -152 273 -161 32 -5 46 -1 77 20 21 14 53 28 72 32 19 3 37 10 40 15
3 5 15 9 28 9 24 0 89 21 186 60 l55 22 -21 -24 c-28 -31 -80 -135 -87 -176
-4 -19 -16 -45 -27 -59 -11 -14 -25 -43 -30 -64 l-11 -39 -57 0 c-109 0 -299
44 -348 80 -28 21 -157 177 -239 290 -38 52 -72 97 -77 98 -4 2 -8 8 -8 13 0
12 43 -17 174 -116z m-272 -1067 c42 -39 72 -62 116 -92 24 -16 46 -34 50 -41
4 -6 23 -22 42 -35 19 -13 40 -28 45 -34 6 -6 24 -22 40 -34 40 -31 74 -58
168 -134 43 -35 91 -71 105 -80 26 -17 24 -18 -111 -18 l-138 0 -17 31 c-9 17
-27 42 -39 55 -13 13 -23 27 -23 33 0 5 -6 16 -12 23 -26 28 -75 94 -88 118
-7 14 -24 35 -37 47 -12 12 -23 27 -23 33 0 5 -4 10 -9 10 -5 0 -16 15 -24 33
-9 18 -26 42 -37 52 -21 19 -45 55 -37 55 2 0 15 -10 29 -22z"/>
<path d="M2359 1491 c-135 -53 -239 -149 -239 -220 0 -27 -31 -43 -110 -56
-52 -9 -66 -15 -68 -31 -3 -23 48 -48 120 -59 41 -6 47 -10 50 -33 3 -24 9
-28 51 -34 27 -4 51 -9 54 -12 3 -3 -5 -20 -18 -38 -25 -34 -45 -82 -58 -133
-6 -26 -15 -32 -91 -58 -95 -32 -110 -41 -110 -67 0 -21 27 -30 97 -30 73 0
82 -5 77 -43 -5 -37 8 -56 55 -78 l34 -15 -35 -22 c-36 -23 -68 -80 -68 -125
-1 -36 -60 -66 -146 -74 -69 -6 -74 -7 -74 -29 0 -31 63 -64 134 -71 l52 -5
-1 -52 0 -51 60 -9 c112 -16 127 -15 136 17 14 51 20 54 116 45 95 -9 184 -4
260 16 l48 12 40 -47 40 -48 70 0 c110 -1 115 2 115 65 0 62 -14 56 142 58 85
1 88 2 122 35 32 31 36 40 36 87 0 36 -6 59 -19 75 -18 22 -27 24 -110 24 -59
0 -94 -4 -103 -13 -15 -15 -58 -16 -58 0 0 6 -9 21 -20 33 l-20 22 42 -1 43
-1 3 60 3 60 90 -4 c49 -1 106 0 125 3 l34 7 0 75 c0 88 -13 113 -70 139 -33
15 -48 16 -85 8 -42 -10 -44 -9 -55 17 -6 15 -36 52 -66 83 -50 51 -52 56 -32
59 19 2 24 10 26 43 l3 41 103 -4 c102 -4 103 -4 125 23 15 21 21 42 21 82 l0
54 -56 26 c-45 20 -67 25 -108 21 -64 -7 -76 -2 -76 28 0 34 -82 109 -159 146
-54 26 -405 25 -472 -1z m723 -233 c4 -29 37 -36 55 -12 12 16 15 16 28 3 14
-13 14 -19 0 -47 -9 -17 -25 -34 -36 -37 -29 -9 -118 14 -141 37 -29 29 -15
58 27 58 19 0 37 5 40 10 11 17 23 11 27 -12z m-221 -38 c20 -40 59 -132 59
-140 0 -17 -78 -11 -101 8 -43 35 -49 44 -49 77 0 55 69 97 91 55z m-224 -295
c23 -16 44 -36 47 -42 8 -18 -4 -43 -19 -43 -7 0 -15 -7 -18 -14 -8 -19 -65
-49 -82 -42 -19 7 -47 70 -43 97 3 22 56 81 68 76 3 -1 24 -15 47 -32z m-272
-125 c7 -43 2 -60 -20 -60 -7 0 -27 -19 -42 -42 -29 -42 -30 -43 -79 -40 -27
2 -52 7 -56 10 -10 10 57 113 95 144 20 17 44 28 64 28 29 0 32 -3 38 -40z
m777 -5 c-3 -18 0 -25 12 -25 9 0 16 6 16 13 1 18 40 -35 40 -54 0 -31 -27
-42 -91 -36 -60 5 -88 23 -89 55 0 13 86 72 106 72 7 0 9 -10 6 -25z m32 -388
l21 -29 -33 -29 c-30 -27 -39 -29 -107 -29 -73 0 -75 1 -75 24 0 14 -4 28 -10
31 -26 16 -15 21 108 52 17 4 22 1 22 -15 0 -24 27 -37 46 -21 17 14 7 37 -19
43 -19 4 -19 4 2 3 13 -1 33 -14 45 -30z m-369 -53 c14 -9 25 -25 25 -35 0
-10 5 -21 10 -24 13 -8 53 -86 47 -91 -3 -3 -20 -7 -38 -10 -30 -5 -36 -2 -51
25 -9 16 -35 39 -57 51 l-41 21 15 30 c13 24 37 43 63 48 1 1 14 -6 27 -15z"/>
</g>
</svg>
