<?xml version="1.0" standalone="no"?>
<!DOCTYPE svg PUBLIC "-//W3C//DTD SVG 20010904//EN"
 "http://www.w3.org/TR/2001/REC-SVG-20010904/DTD/svg10.dtd">
<svg version="1.0" xmlns="http://www.w3.org/2000/svg"
 width="936.000000pt" height="936.000000pt" viewBox="0 0 936.000000 936.000000"
 preserveAspectRatio="xMidYMid meet">
<metadata>
Created by potrace 1.11, written by Peter Selinger 2001-2013
</metadata>
<g transform="translate(0.000000,936.000000) scale(0.100000,-0.100000)"
fill="#000000" stroke="none">
<path d="M3497 8714 c-1 -1 -37 -4 -80 -5 -70 -2 -120 -8 -197 -22 -34 -6
-212 -68 -225 -77 -5 -4 -21 -11 -35 -15 -43 -13 -250 -117 -250 -126 0 -5 -5
-9 -10 -9 -21 0 -236 -209 -288 -279 -15 -20 -29 -38 -32 -41 -36 -36 -174
-296 -164 -311 3 -5 0 -9 -5 -9 -6 0 -10 -3 -10 -7 1 -5 0 -11 -1 -15 -1 -5
-3 -11 -4 -15 -1 -5 -9 -33 -18 -63 -23 -76 -44 -187 -53 -270 -17 -166 -26
-430 -15 -430 3 0 6 -21 6 -48 1 -26 4 -64 7 -86 4 -21 9 -57 12 -80 6 -38 35
-203 55 -306 15 -79 21 -103 29 -119 5 -9 9 -19 10 -24 0 -4 8 -23 16 -43 8
-20 15 -38 15 -40 0 -1 32 -70 71 -151 71 -146 109 -238 109 -258 0 -6 -8 -20
-17 -31 -17 -19 -20 -27 -28 -65 -4 -21 -31 -79 -120 -264 -40 -82 -83 -172
-95 -200 -12 -27 -28 -64 -35 -81 -8 -17 -30 -73 -50 -125 -19 -52 -39 -103
-44 -114 -10 -20 -51 -141 -55 -160 -6 -25 -29 -104 -41 -140 -7 -22 -16 -56
-19 -75 -3 -19 -8 -46 -11 -60 -8 -34 -17 -90 -18 -122 -1 -16 -4 -28 -7 -28
-3 0 -5 -17 -6 -38 0 -20 -4 -68 -7 -107 -16 -171 -24 -270 -32 -425 -16 -287
-28 -571 -29 -655 l0 -70 124 -155 c68 -85 126 -157 130 -160 3 -3 17 -21 30
-40 13 -19 27 -37 30 -40 11 -9 70 -110 70 -120 0 -6 3 -10 8 -10 4 0 15 -19
24 -43 10 -23 35 -60 56 -82 21 -22 51 -58 68 -80 16 -22 36 -49 45 -60 9 -11
55 -68 101 -126 47 -59 100 -123 118 -143 18 -20 52 -70 74 -110 47 -85 58
-101 144 -205 34 -42 62 -82 62 -89 0 -18 23 -50 142 -199 54 -67 98 -124 98
-126 0 -2 -20 -4 -44 -6 -50 -2 -82 -7 -94 -15 -22 -13 -95 -22 -262 -31 -58
-3 -145 -8 -195 -10 -49 -3 -137 -8 -194 -10 -58 -2 -154 -7 -215 -10 -61 -3
-156 -8 -211 -10 -55 -3 -145 -7 -200 -11 -55 -3 -125 -7 -156 -8 -86 -5 -94
-10 -97 -58 -1 -24 -3 -52 -3 -63 -4 -50 -3 -50 79 -48 42 1 77 3 77 4 0 3
405 25 613 33 40 2 75 6 78 9 3 3 16 2 29 -3 13 -5 25 -6 28 -3 6 6 34 8 222
18 401 21 513 33 539 54 6 5 36 8 66 8 50 -2 56 -5 77 -37 13 -19 35 -48 49
-65 14 -16 43 -59 64 -95 21 -36 49 -77 63 -92 28 -31 73 -92 69 -95 -8 -9 4
-27 48 -74 50 -55 56 -65 42 -85 -13 -21 -53 -26 -250 -30 -690 -13 -1449 -34
-1745 -49 -243 -13 -280 -15 -321 -26 -26 -6 -46 -18 -48 -27 -9 -34 -9 -122
-1 -123 47 -3 113 -3 113 1 0 3 57 6 128 6 130 2 507 12 507 14 0 0 65 3 145
5 80 2 174 7 210 11 36 4 335 6 665 6 330 -1 619 -1 643 -1 49 0 67 -1 85 -2
28 -3 110 12 143 26 61 25 62 86 1 175 -37 54 -182 247 -207 275 -10 11 -31
45 -46 75 -29 55 -41 72 -101 137 -55 59 -48 64 100 69 62 2 112 4 112 5 0 0
77 2 170 4 219 5 287 13 332 36 24 13 49 72 44 104 -2 11 -4 25 -5 30 -3 19
-31 50 -71 80 -42 30 -53 39 -150 126 -78 70 -162 140 -189 159 -12 8 -25 19
-31 26 -16 19 -167 134 -257 197 -79 55 -123 89 -178 141 -14 13 -83 70 -155
127 -71 56 -131 107 -133 111 -2 4 -8 8 -13 8 -5 0 -18 8 -30 17 -11 10 -33
28 -47 40 -15 13 -31 23 -35 23 -4 0 -13 4 -20 10 -40 33 -117 101 -156 138
-25 23 -77 63 -116 89 -67 44 -237 181 -261 210 -6 7 -14 13 -17 13 -3 0 -21
15 -39 33 -42 39 -135 123 -174 156 -15 13 -55 40 -89 58 -64 37 -115 80 -115
98 0 6 -5 16 -12 23 -6 6 -14 20 -16 29 -9 32 -10 696 -1 776 12 120 25 216
34 247 2 8 7 31 11 50 8 45 12 65 14 65 1 0 3 7 5 15 3 16 27 128 31 145 1 6
7 33 14 60 19 87 85 299 98 319 4 6 7 13 7 16 2 15 19 60 37 100 39 86 61 135
63 140 6 17 65 145 147 318 11 23 26 42 34 42 19 0 97 -81 159 -165 17 -22 38
-49 48 -60 10 -11 37 -45 60 -75 23 -30 44 -57 47 -60 3 -3 17 -21 30 -40 14
-19 35 -46 47 -60 13 -14 23 -28 23 -33 0 -4 11 -18 25 -31 14 -13 25 -26 25
-30 0 -8 50 -74 88 -116 12 -13 22 -28 22 -31 0 -3 8 -15 18 -27 30 -35 46
-56 92 -117 44 -59 120 -155 130 -165 3 -3 25 -30 50 -60 25 -30 66 -77 92
-105 26 -27 48 -53 48 -57 0 -12 59 -39 93 -43 35 -4 79 -12 117 -21 14 -3 36
-8 50 -11 14 -2 81 -15 150 -28 69 -13 148 -27 175 -31 28 -3 53 -8 56 -10 3
-2 34 -6 70 -10 35 -3 67 -8 70 -10 4 -2 25 -6 48 -9 122 -15 133 -17 216 -36
60 -14 155 -55 155 -66 0 -15 -133 -148 -180 -180 -25 -16 -65 -40 -89 -53
-58 -29 -80 -50 -87 -86 -16 -81 90 -119 336 -119 136 0 128 -2 268 78 73 42
77 43 79 19 3 -38 38 -101 65 -117 36 -21 67 -27 148 -28 73 -1 113 15 165 67
47 48 56 70 57 139 0 55 -3 94 -16 223 -3 31 -2 32 48 38 105 14 168 37 225
81 73 56 176 167 208 225 14 25 50 82 80 128 30 46 61 99 69 118 38 91 77 170
88 176 6 4 26 8 44 8 18 0 60 13 95 28 34 16 91 37 126 48 42 12 77 32 104 56
23 21 38 38 35 38 -3 0 0 22 7 49 7 29 12 96 11 162 -1 92 -5 119 -20 142
l-19 28 40 37 c72 68 152 228 167 337 5 37 7 94 5 140 -3 75 -55 134 -134 151
-38 9 -180 5 -232 -5 -123 -24 -156 -57 -264 -256 -31 -58 -92 -84 -195 -85
-47 0 -54 3 -88 40 -20 22 -40 40 -44 41 -4 0 -16 2 -27 5 -58 12 -135 2 -168
-21 -27 -19 -78 -95 -72 -106 3 -4 1 -10 -5 -14 -5 -3 -10 -14 -10 -23 0 -32
-45 -69 -120 -98 -41 -15 -77 -29 -80 -29 -10 -2 -56 -18 -85 -30 -68 -28
-540 -195 -566 -200 -10 -2 -27 -9 -38 -15 -12 -6 -21 -9 -21 -6 0 2 -28 -7
-62 -20 -60 -24 -267 -89 -403 -128 -5 -2 -21 -8 -35 -13 -14 -6 -28 -9 -32
-6 -5 2 -8 -1 -8 -8 0 -7 -3 -10 -6 -6 -4 3 -23 -2 -43 -12 -42 -20 -39 -20
-113 2 -71 22 -201 89 -253 131 -22 18 -66 48 -97 66 -32 17 -60 36 -63 41 -8
13 55 23 200 33 55 4 146 16 167 22 14 4 28 8 73 17 6 2 15 5 20 8 9 5 23 10
80 25 9 2 80 31 180 72 171 71 359 180 448 261 117 106 350 350 389 407 40 59
152 259 153 274 1 3 16 37 34 75 48 101 75 184 106 320 35 153 39 202 40 470
0 252 -9 370 -39 483 -3 12 -8 30 -10 40 -13 53 -52 136 -97 202 -38 57 -167
188 -251 255 -78 63 -101 76 -158 91 -64 18 -146 60 -185 97 -19 18 -70 43
-370 187 -166 79 -254 111 -343 125 -15 3 -43 7 -62 10 -19 3 -48 8 -65 11
-16 2 -73 7 -125 10 -52 3 -112 6 -133 8 -20 1 -38 1 -40 0z m248 -168 c71 -6
115 -15 175 -33 56 -18 100 -37 315 -139 44 -20 82 -38 85 -39 43 -16 70 -31
70 -37 0 -4 7 -8 15 -8 8 0 46 -19 84 -42 65 -38 84 -52 151 -111 14 -12 61
-53 105 -90 44 -38 85 -74 90 -80 6 -7 29 -24 53 -40 23 -15 42 -34 42 -42 0
-20 55 -81 107 -116 23 -17 43 -27 43 -24 0 12 61 -27 74 -48 13 -20 44 -103
51 -137 2 -8 4 -15 5 -15 2 0 6 -23 14 -72 3 -21 8 -51 11 -68 20 -113 26
-360 12 -435 -7 -35 -56 -210 -67 -240 -5 -14 -11 -36 -14 -50 -2 -14 -18 -59
-36 -100 -17 -41 -32 -79 -34 -85 -8 -35 -150 -283 -187 -329 -5 -6 -34 -45
-66 -86 -67 -89 -232 -259 -311 -321 -32 -24 -58 -47 -60 -51 -2 -4 -8 -8 -14
-8 -5 0 -24 -11 -41 -24 -109 -82 -428 -220 -557 -241 -19 -3 -48 -8 -65 -11
-156 -33 -400 -20 -545 27 -110 36 -278 124 -288 150 -2 5 -10 9 -19 9 -19 0
-253 235 -253 254 0 8 -3 16 -8 18 -13 5 -72 91 -72 105 0 7 -4 13 -8 13 -14
0 -157 280 -207 405 -15 39 -33 86 -41 105 -12 31 -50 179 -60 238 -5 27 -11
60 -18 88 -2 12 -7 37 -10 55 -3 19 -8 44 -10 56 -24 115 -24 353 -1 463 3 14
7 34 9 46 12 61 53 189 92 288 115 284 229 429 474 598 180 124 349 189 534
205 39 3 72 6 73 7 5 4 240 -2 308 -8z m2800 -2733 c11 -7 16 -13 11 -13 -4 0
2 -8 15 -18 12 -11 24 -29 26 -41 3 -23 -44 -130 -86 -196 -30 -47 -101 -139
-101 -131 0 2 -15 -9 -32 -25 -49 -44 -96 -56 -141 -34 -61 29 -69 98 -18 152
12 12 21 27 21 33 0 5 4 10 8 10 5 0 17 26 27 58 32 104 39 117 69 145 43 38
143 87 164 80 9 -4 26 -12 37 -20z m-3692 -359 c9 -4 17 -10 17 -15 0 -5 6 -9
13 -9 7 0 23 -9 35 -20 12 -11 24 -20 27 -20 3 0 70 -48 150 -107 79 -60 181
-136 227 -169 99 -73 294 -204 304 -204 4 0 15 -6 23 -14 18 -16 135 -76 196
-101 22 -9 69 -19 105 -22 61 -5 69 -3 135 33 115 62 156 80 234 103 41 12 80
29 88 37 8 8 26 14 41 15 15 0 34 2 42 4 8 2 27 5 42 8 54 11 105 29 512 183
20 8 22 10 -37 -59 -57 -66 -168 -289 -204 -407 -26 -88 -40 -120 -78 -180
-12 -19 -22 -39 -23 -44 0 -5 -5 -12 -12 -16 -6 -4 -13 -13 -14 -21 -2 -8 -6
-21 -9 -29 -3 -8 -13 -43 -22 -77 l-17 -61 -152 4 c-83 2 -166 6 -183 9 -18 3
-45 7 -60 9 -75 11 -117 19 -223 43 -143 32 -132 29 -150 35 -8 3 -44 16 -80
28 -138 46 -183 78 -300 216 -23 27 -52 60 -64 74 -12 14 -69 84 -127 155 -57
72 -108 135 -114 141 -5 7 -19 24 -30 40 -11 15 -37 49 -57 76 -21 26 -38 52
-38 57 0 5 -4 11 -8 13 -5 2 -28 30 -53 63 -24 33 -48 65 -54 71 -29 33 -45
55 -45 62 -1 4 -19 25 -40 47 -38 38 -54 73 -27 61 6 -3 20 -9 30 -12z m-293
-2951 c14 -12 39 -34 55 -48 17 -15 91 -72 165 -127 74 -56 160 -124 191 -152
30 -28 66 -59 80 -68 34 -24 113 -88 457 -363 312 -250 322 -259 412 -324 80
-59 83 -62 71 -74 -6 -6 -123 -10 -318 -11 l-308 -2 -22 25 c-13 13 -23 27
-23 32 0 11 -87 137 -117 168 -13 14 -35 47 -47 72 -12 25 -56 88 -97 140 -42
52 -102 134 -135 183 -32 48 -85 118 -116 154 -31 36 -55 69 -53 72 2 4 -10
20 -28 37 -18 17 -41 48 -52 69 -11 22 -26 45 -32 52 -7 7 -13 17 -13 21 0 4
-15 22 -32 41 -50 53 -104 123 -111 143 -6 16 -5 16 21 0 15 -10 38 -28 52
-40z"/>
<path d="M6258 3785 c-2 -2 -43 -6 -93 -9 -151 -11 -243 -23 -260 -35 -5 -4
-41 -21 -80 -37 -38 -15 -72 -31 -75 -35 -3 -3 -21 -14 -40 -24 -151 -77 -314
-226 -367 -335 -28 -58 -35 -77 -39 -119 -2 -18 -11 -42 -21 -53 -20 -22 -86
-55 -126 -62 -15 -3 -35 -7 -45 -10 -17 -5 -45 -11 -112 -22 -52 -9 -52 -9
-92 -27 -21 -9 -39 -20 -39 -24 -8 -46 -3 -63 21 -74 14 -7 32 -18 40 -25 23
-18 223 -77 247 -73 5 1 10 1 13 -1 3 -1 16 -4 30 -6 43 -8 67 -41 69 -96 1
-21 36 -45 76 -52 17 -3 44 -9 60 -12 17 -3 39 -7 50 -9 11 -2 29 -6 40 -9 11
-2 24 -5 28 -5 11 -1 -2 -42 -21 -63 -8 -10 -11 -18 -6 -18 5 0 4 -4 -1 -8
-21 -15 -61 -85 -108 -192 -8 -19 -25 -70 -38 -113 -29 -101 -44 -113 -241
-184 -203 -73 -255 -99 -264 -132 -21 -76 15 -98 176 -107 226 -11 235 -13
246 -46 3 -12 6 -50 6 -86 0 -65 7 -82 51 -121 25 -23 137 -81 155 -81 20 0
-11 -31 -54 -53 -83 -44 -169 -176 -181 -275 -9 -84 -36 -125 -106 -163 -34
-18 -69 -34 -77 -35 -24 -4 -59 -13 -68 -17 -4 -3 -34 -8 -67 -11 -94 -11
-198 -26 -216 -32 -36 -11 -29 -68 13 -113 63 -66 233 -117 416 -124 10 0 13
-28 11 -122 -1 -67 1 -126 4 -132 6 -9 60 -19 157 -29 14 -1 41 -5 60 -8 19
-3 72 -8 116 -12 105 -8 138 7 155 69 29 110 51 120 229 110 238 -14 462 -9
580 12 91 16 182 35 200 42 22 9 60 11 60 4 0 -3 10 -17 23 -31 12 -14 55 -64
94 -111 l71 -85 189 1 c103 2 189 4 191 5 2 3 17 7 32 9 5 0 18 10 28 21 18
19 20 32 26 165 6 105 -17 98 366 106 74 2 155 8 180 14 39 10 107 59 144 103
6 7 19 22 29 33 9 10 15 19 12 19 -2 0 0 11 5 25 15 38 15 163 1 221 -8 34
-24 63 -47 87 -42 42 -84 51 -265 50 -145 -1 -204 -9 -252 -33 -37 -20 -68
-25 -117 -22 -20 2 -29 10 -38 36 -7 18 -30 54 -52 79 l-40 45 100 -2 c54 -2
103 0 107 3 4 3 9 31 9 61 1 30 3 94 5 142 4 85 4 87 31 90 15 3 32 2 37 -1
13 -8 457 -5 496 4 17 3 37 7 46 8 14 1 17 13 15 70 -1 38 2 71 7 74 4 2 5 9
1 14 -3 5 -7 49 -9 97 -4 112 -20 166 -65 213 -53 56 -158 102 -229 102 -31
-1 -67 -4 -81 -7 -83 -20 -130 -18 -130 5 0 12 -60 106 -88 138 -12 12 -52 57
-89 99 -131 145 -129 140 -75 156 19 5 35 18 41 35 10 23 21 106 22 154 0 16
10 17 137 12 288 -11 360 -8 392 15 16 11 38 36 49 54 28 45 52 124 40 132 -6
3 -6 11 -2 17 5 7 8 48 8 92 l0 80 -85 42 c-142 69 -178 78 -330 78 -137 0
-179 7 -181 28 -2 34 -11 73 -22 93 -40 74 -178 198 -307 275 -87 51 -120 60
-275 75 -70 7 -621 14 -627 9z m1447 -611 c16 -49 38 -74 71 -80 27 -5 38 0
73 32 l42 37 26 -26 c32 -31 33 -78 4 -118 -12 -16 -21 -31 -21 -34 0 -3 -14
-19 -32 -35 -30 -28 -34 -29 -110 -25 -44 3 -85 8 -91 12 -6 4 -21 8 -34 9
-40 4 -153 65 -170 91 -28 42 -27 70 3 99 15 13 34 22 41 20 7 -3 13 -2 13 2
0 4 15 7 32 8 65 2 75 4 94 24 26 26 47 21 59 -16z m-556 -100 c12 -15 21 -33
21 -40 0 -8 4 -14 8 -14 5 0 9 -6 9 -12 0 -7 19 -53 42 -101 22 -49 41 -94 41
-101 0 -6 4 -16 9 -21 4 -6 13 -24 19 -42 13 -41 1 -52 -59 -54 -120 -5 -244
64 -293 161 -10 20 -15 115 -6 115 1 0 3 7 5 16 11 56 89 119 147 119 28 0 42
-6 57 -26z m-593 -721 c38 -26 90 -66 116 -91 44 -42 67 -82 46 -82 -5 0 -6
-4 -3 -10 9 -15 -13 -48 -37 -55 -13 -4 -39 -24 -58 -45 -46 -50 -135 -98
-179 -96 -29 1 -40 8 -63 41 -36 52 -71 161 -63 200 3 17 15 44 28 60 41 55
114 125 129 125 9 0 47 -21 84 -47z m-666 -263 c11 -11 20 -26 21 -32 0 -7 3
-22 5 -33 3 -11 5 -46 6 -79 1 -46 -2 -61 -17 -72 -10 -7 -22 -11 -26 -8 -10
6 -95 -77 -124 -120 -11 -16 -33 -43 -48 -60 -26 -27 -33 -30 -90 -29 -34 0
-80 3 -102 6 -22 3 -45 6 -52 6 -6 1 -18 8 -27 16 -13 14 -12 21 16 73 30 55
108 171 136 202 59 66 104 104 146 125 63 31 128 33 156 5z m1972 -47 c0 -10
2 -25 3 -33 1 -8 -3 -21 -8 -27 -6 -8 -6 -13 1 -13 5 0 12 -9 15 -19 3 -15 11
-18 27 -14 12 3 24 12 27 19 3 8 9 14 14 14 12 0 49 -32 49 -43 0 -4 9 -20 21
-36 29 -40 23 -97 -14 -125 -25 -18 -41 -21 -130 -20 -107 1 -117 3 -184 24
-46 14 -90 54 -94 85 -3 24 9 65 20 65 5 0 30 17 57 39 53 42 159 101 180 101
8 0 15 -8 16 -17z m10 -953 c14 0 90 -80 108 -114 13 -25 13 -29 -3 -37 -9 -6
-27 -20 -40 -33 -32 -34 -97 -80 -97 -70 0 5 -4 2 -10 -6 -7 -11 -42 -15 -164
-18 -103 -3 -156 -1 -156 6 0 6 -8 8 -19 5 -24 -6 -31 6 -37 65 -3 33 -11 52
-26 63 -33 25 -16 44 59 67 202 64 267 73 269 37 3 -75 70 -110 119 -61 30 30
24 61 -19 88 -17 11 -23 17 -13 14 10 -3 23 -6 29 -6z m-860 -192 c43 -30 62
-56 70 -98 2 -8 22 -42 44 -75 39 -57 110 -194 102 -199 -19 -12 -66 -26 -107
-32 -59 -8 -77 2 -124 69 -40 56 -94 100 -169 138 -67 34 -72 40 -55 70 44 81
74 113 134 144 40 21 52 19 105 -17z"/>
</g>
</svg>
